<svg width="402" height="401" viewBox="0 0 402 401" fill="none" xmlns="http://www.w3.org/2000/svg">
<path d="M201.186 400.833C311.792 400.833 401.456 311.169 401.456 200.563C401.456 89.9569 311.792 0.292969 201.186 0.292969C90.5797 0.292969 0.915771 89.9569 0.915771 200.563C0.915771 311.169 90.5797 400.833 201.186 400.833Z" fill="#0A2337"/>
<path d="M192.04 293.3C185.4 287.793 179.955 280.987 176.04 273.3C177.933 272.9 179.777 272.444 181.57 271.93C177.57 265.62 177.24 263.98 177.24 262.85C177.242 262.011 177.546 261.202 178.097 260.57C178.648 259.938 179.409 259.526 180.24 259.41L188.93 257.81C192.36 256.67 192.36 255.27 192.36 254.73C192.36 254.19 192.03 252.65 189.85 250.17C184.26 243.96 183.85 243.44 183.66 243.17C181.29 239.933 179.999 236.032 179.97 232.02C179.966 231.131 180.023 230.242 180.14 229.36C178.152 230.905 175.983 232.202 173.68 233.22C173.5 237.5 173.41 242.03 173.41 246.81C173.41 249.81 173.47 254.41 173.59 260.43C173.71 266.45 173.78 271.07 173.78 274.11C173.783 275.186 173.385 276.224 172.664 277.023C171.943 277.822 170.951 278.323 169.88 278.43C168.88 278.61 166.67 278.85 159.8 278.85C152.93 278.85 150.64 278.61 149.62 278.42C148.886 278.344 148.179 278.106 147.547 277.724C146.916 277.342 146.378 276.825 145.97 276.21V276.12C145.574 275.12 145.427 274.039 145.54 272.97C145.54 270.07 145.61 265.66 145.73 259.86C145.85 254.06 145.92 249.7 145.92 246.86C145.92 242.347 145.853 238.187 145.72 234.38C140.32 232.649 135.512 229.442 131.84 225.12C125.76 218.113 122.723 208.82 122.73 197.24C122.73 185.907 125.837 176.617 132.05 169.37C138.557 161.73 147.383 157.907 158.53 157.9C169.323 157.9 178.077 161.76 184.79 169.48C191.15 176.813 194.333 185.997 194.34 197.03C194.406 202.495 193.533 207.93 191.76 213.1C197.371 209.391 203.944 207.406 210.67 207.39C212.59 207.39 214 208.62 218.05 215.53C222.1 222.44 222.39 223.77 222.39 224.84C222.291 226.183 221.709 227.444 220.75 228.39L219.63 229.66L217.98 229.25C217.052 229.013 216.098 228.892 215.14 228.89C213.489 228.822 211.854 229.232 210.43 230.07V230.07C209.888 230.354 209.439 230.788 209.136 231.32C208.833 231.851 208.688 232.459 208.72 233.07C208.72 233.07 208.72 234.19 211.17 236.75C215.62 241.44 216.89 243.13 217.45 243.99C218.058 244.9 218.6 245.852 219.07 246.84L219.46 246.33C220.753 244.617 221.963 242.864 223.09 241.07C223.88 232.63 226.93 225.54 232.21 219.93C234.102 212.52 235.036 204.898 234.99 197.25C234.99 175.17 227.81 156.52 213.45 141.3C198.783 125.72 180.487 117.93 158.56 117.93C136.48 117.93 118.147 125.684 103.56 141.19C89.2134 156.27 82.04 174.92 82.04 197.14C82.04 215.513 87.04 231.513 97.04 245.14C107.327 259.22 121.227 268.44 138.74 272.8C138.447 282.44 138.73 289.333 139.59 293.48C139.688 294.369 140.031 295.213 140.58 295.92C141.129 296.626 141.863 297.166 142.7 297.48C145.7 298.48 153.67 298.98 166.61 298.98C184.19 298.98 192.98 297.55 192.98 294.69C192.98 294.27 192.66 293.8 192.04 293.3Z" fill="#F9B233"/>
<path d="M170.6 246.52C170.6 249.593 170.66 254.156 170.78 260.21C170.9 266.263 170.963 270.8 170.97 273.82C170.97 274.71 170.45 275.23 169.4 275.4C162.973 275.906 156.517 275.906 150.09 275.4C149.17 275.23 148.6 274.96 148.39 274.58C148.265 273.958 148.221 273.323 148.26 272.69C148.26 269.796 148.323 265.463 148.45 259.69C148.577 253.916 148.64 249.543 148.64 246.57C148.766 237.074 148.305 227.579 147.26 218.14C147.193 217.702 147.15 217.262 147.13 216.82C147.13 215.98 147.7 215.56 148.83 215.56C149.96 215.56 151.83 215.69 154.21 215.94C156.59 216.19 158.43 216.32 159.65 216.32C160.87 216.32 162.65 216.21 165.12 216C167.59 215.79 169.38 215.69 170.6 215.69C171.6 215.69 172.1 216.11 172.1 216.95C172.1 217.12 172.1 217.51 171.98 218.14C170.998 227.567 170.537 237.041 170.6 246.52V246.52ZM172.23 199.79C172.23 207.076 168.12 210.723 159.9 210.73C156.755 210.852 153.665 209.876 151.16 207.97C149.966 206.977 149.007 205.731 148.353 204.323C147.699 202.915 147.366 201.379 147.377 199.826C147.389 198.274 147.745 196.743 148.42 195.344C149.095 193.946 150.071 192.715 151.28 191.74C153.724 189.791 156.775 188.764 159.9 188.84C162.998 188.79 166.011 189.855 168.39 191.84C169.608 192.781 170.589 193.993 171.255 195.38C171.922 196.767 172.256 198.291 172.23 199.83V199.79Z" fill="#F9B233"/>
<path d="M219.53 224.52C219.414 225.175 219.083 225.773 218.59 226.22C217.44 225.926 216.257 225.778 215.07 225.78C212.879 225.701 210.712 226.268 208.84 227.41C207.905 227.949 207.133 228.731 206.605 229.672C206.077 230.614 205.812 231.68 205.84 232.76C205.84 234.23 206.91 236.09 209.05 238.36C211.215 240.493 213.22 242.782 215.05 245.21C217.136 248.225 218.255 251.803 218.26 255.47C218.227 257.788 217.801 260.084 217 262.26C216.312 264.474 215.057 266.47 213.36 268.05C210.086 270.839 206.416 273.127 202.47 274.84C198.579 276.634 194.363 277.618 190.08 277.73C189.24 277.73 187.363 275.456 184.45 270.91C181.537 266.363 180.08 263.586 180.08 262.58C180.08 262.2 180.31 261.97 180.77 261.88L189.64 260.25C193.33 259.07 195.18 257.15 195.18 254.46C195.18 252.62 194.11 250.48 191.97 248.04C188.15 243.806 186.15 241.563 185.97 241.31C183.916 238.543 182.795 235.195 182.77 231.75C182.77 225.463 185.957 220.13 192.33 215.75C197.682 211.961 204.073 209.918 210.63 209.9C211.3 209.9 212.96 212.16 215.63 216.66C218.3 221.16 219.53 223.79 219.53 224.52Z" fill="#F9B233"/>
<path d="M289.1 244.52C289.1 254.08 286.177 261.836 280.33 267.79C274.483 273.743 266.817 276.723 257.33 276.73C248.097 276.73 240.503 273.793 234.55 267.92C228.597 262.046 225.62 254.496 225.62 245.27C225.62 235.55 228.473 227.656 234.18 221.59C239.887 215.523 247.603 212.493 257.33 212.5C266.803 212.5 274.47 215.466 280.33 221.4C286.19 227.333 289.113 235.04 289.1 244.52ZM268.47 244.52C268.508 241.322 267.418 238.213 265.39 235.74C264.447 234.525 263.232 233.548 261.842 232.888C260.453 232.228 258.928 231.903 257.39 231.94C255.817 231.911 254.26 232.248 252.84 232.925C251.42 233.602 250.178 234.6 249.21 235.84C247.26 238.324 246.201 241.392 246.201 244.55C246.201 247.708 247.26 250.775 249.21 253.26C250.191 254.477 251.433 255.458 252.843 256.133C254.253 256.807 255.797 257.157 257.36 257.157C258.923 257.157 260.467 256.807 261.877 256.133C263.287 255.458 264.529 254.477 265.51 253.26C267.496 250.787 268.545 247.691 268.47 244.52V244.52Z" fill="#F9B233"/>
<path d="M336.76 211.03C336.76 221.47 332.547 229.136 324.12 234.03C317.78 237.636 314.34 241.303 313.8 245.03C313.68 246.03 313.57 246.96 313.49 247.92C313.32 248.366 313.001 248.741 312.588 248.981C312.175 249.221 311.692 249.312 311.22 249.24C308.161 249.132 305.099 249.387 302.1 250C301.818 250.109 301.521 250.173 301.22 250.19C299.713 250.19 298.96 248.133 298.96 244.02C298.96 240.46 301.023 236.046 305.15 230.78C309.277 225.513 311.343 221.1 311.35 217.54C311.35 212.126 308.477 209.423 302.73 209.43C299.077 209.43 294.337 210.853 288.51 213.7C286.71 213.7 285.81 208.366 285.81 197.7C285.785 196.816 285.849 195.931 286 195.06C286.587 192.246 290.087 190.066 296.5 188.52C300.906 187.419 305.428 186.848 309.97 186.82C317.55 186.82 323.84 188.936 328.84 193.17C334.12 197.57 336.76 203.523 336.76 211.03ZM319.76 265.12C319.779 266.668 319.49 268.205 318.912 269.642C318.334 271.078 317.476 272.386 316.39 273.49C315.332 274.603 314.058 275.489 312.647 276.094C311.235 276.7 309.716 277.012 308.18 277.012C306.644 277.012 305.125 276.7 303.713 276.094C302.302 275.489 301.028 274.603 299.97 273.49C298.885 272.386 298.029 271.078 297.453 269.641C296.876 268.204 296.59 266.668 296.61 265.12C296.584 263.586 296.869 262.063 297.446 260.642C298.023 259.221 298.882 257.931 299.97 256.85C301.043 255.763 302.322 254.9 303.731 254.312C305.14 253.723 306.653 253.419 308.18 253.419C309.707 253.419 311.22 253.723 312.629 254.312C314.038 254.9 315.317 255.763 316.39 256.85C317.472 257.934 318.325 259.225 318.897 260.646C319.469 262.067 319.749 263.588 319.72 265.12H319.76Z" fill="#F9B233"/>
</svg>
