<svg width="401" height="402" viewBox="0 0 401 402" fill="none" xmlns="http://www.w3.org/2000/svg">
<path d="M200.667 401.115C311.273 401.115 400.937 311.451 400.937 200.845C400.937 90.2385 311.273 0.574707 200.667 0.574707C90.0611 0.574707 0.397095 90.2385 0.397095 200.845C0.397095 311.451 90.0611 401.115 200.667 401.115Z" fill="#0A2337"/>
<path d="M76.64 276.97C77.53 275.97 78.35 274.82 79.3 273.89C87.49 266.04 95.58 258.06 102.15 248.19C104.29 244.99 106.15 241.55 108.23 238.12C105.1 235.47 102.23 233.19 99.42 230.64C90.14 222.05 82.7301 211.64 79.1801 198.09C74.4001 179.74 77.93 163.17 87.66 148.32C96.87 134.32 109.15 125.32 122.86 118.84C135.223 113.083 148.58 109.763 162.2 109.06C183.28 107.81 203.57 111.69 222.74 122.51C235.31 129.6 246.22 139.23 253.91 153.37C259.153 162.962 261.723 173.786 261.35 184.71C260.977 195.635 257.675 206.259 251.79 215.47C242.61 229.78 230.45 239.16 216.67 245.83C204.592 251.607 191.528 255.041 178.17 255.95C165.053 257.043 151.846 255.786 139.17 252.24C138.497 252.027 137.783 251.977 137.088 252.095C136.392 252.214 135.734 252.496 135.17 252.92C121.62 261.83 107.69 269.78 92.7101 274.71C88.4301 276.13 84.01 277 79.64 278.01C78.7195 278.083 77.7932 278.023 76.89 277.83L76.64 276.97Z" fill="#F9B233"/>
<path d="M209.63 261.45C213.45 259.79 217.07 258.37 220.63 256.66C234.45 250.01 246.82 240.79 256.63 227.16C264.774 216.064 269.698 202.935 270.86 189.22C270.86 188.85 271.02 188.5 271.2 187.68C274.71 188.55 278.2 189.22 281.65 190.3C292.96 193.88 303.21 199.81 311.2 210.3C316.677 217.313 319.66 225.951 319.677 234.85C319.693 243.748 316.742 252.398 311.29 259.43C309.358 261.919 307.242 264.259 304.96 266.43C304.502 266.833 304.174 267.362 304.018 267.952C303.861 268.541 303.883 269.163 304.08 269.74C305.36 276.01 308.64 280.74 312.35 285.11C314.94 288.16 317.81 290.87 320.52 293.77C321.34 294.65 322.05 295.68 322.8 296.64L322.56 297.26C321.726 297.345 320.885 297.345 320.05 297.26C311.19 295.39 303.19 290.85 295.37 285.82C292.37 283.82 289.44 281.6 286.37 279.67C285.928 279.392 285.435 279.206 284.919 279.123C284.404 279.041 283.877 279.064 283.37 279.19C263.44 285.34 243.93 284.44 225.02 274.19C219.11 270.986 213.882 266.658 209.63 261.45Z" fill="#F9B233"/>
</svg>
