<svg width="66" height="66" viewBox="0 0 66 66" fill="none" xmlns="http://www.w3.org/2000/svg">
<path d="M46.49 21.9004H20.02L33.25 31.4297L46.49 21.9004Z" fill="#0A2337"/>
<path d="M50.8901 43.29V24.1699L40.04 31.9697L50.8901 43.29Z" fill="#0A2337"/>
<path d="M33.25 36.8604L28.01 33.0898L17 44.5703H49.5L38.49 33.0898L33.25 36.8604Z" fill="#0A2337"/>
<path d="M33.2501 0.15918C26.8321 0.15918 20.5582 2.06228 15.2218 5.62793C9.88542 9.19358 5.72623 14.2619 3.27017 20.1914C0.814106 26.1209 0.171492 32.6457 1.42358 38.9404C2.67567 45.2351 5.76623 51.0165 10.3044 55.5547C14.8427 60.0929 20.6247 63.1835 26.9194 64.4355C33.2141 65.6876 39.7387 65.0459 45.6681 62.5898C51.5976 60.1338 56.6656 55.9741 60.2312 50.6377C63.7969 45.3013 65.7 39.0274 65.7 32.6094C65.7 24.0031 62.2813 15.7496 56.1957 9.66406C50.1101 3.57851 41.8564 0.15918 33.2501 0.15918ZM54.0401 47.7197H12.4701V17.5195H54.0401V47.7197Z" fill="#0A2337"/>
<path d="M15.62 24.1699V43.29L26.46 31.9805L15.62 24.1699Z" fill="#0A2337"/>
</svg>
