<svg width="38" height="37" viewBox="0 0 38 37" fill="none" xmlns="http://www.w3.org/2000/svg">
<path d="M36.7299 15.52C36.1073 11.7176 34.3094 8.20586 31.5885 5.47783C28.8677 2.7498 25.3606 0.942571 21.56 0.309957C17.2173 -0.407066 12.7613 0.453758 8.99819 2.73672C5.23509 5.01969 2.41346 8.57404 1.04336 12.7568C-0.32674 16.9396 -0.154694 21.4746 1.52847 25.5416C3.21163 29.6085 6.29457 32.9388 10.2199 34.93C13.2328 36.4925 16.6294 37.1621 20.0099 36.86C23.7948 36.5711 27.3967 35.1144 30.3183 32.6908C33.2398 30.2672 35.3369 26.9964 36.32 23.33C36.5863 22.1554 36.7865 20.9669 36.9198 19.77C36.9198 19.6 36.9899 19.43 37.0199 19.25V17.73C36.9199 16.96 36.8499 16.23 36.7299 15.52ZM20.38 14.52H23.9799C23.9799 14.61 24.0399 14.66 23.9799 14.72C23.8799 15.87 23.7598 17.03 23.6798 18.19C23.6798 18.51 23.4999 18.58 23.2199 18.58C22.4099 18.58 21.61 18.58 20.8 18.58C20.43 18.58 20.32 18.68 20.32 19.06C20.32 22.6866 20.32 26.3166 20.32 29.95C20.32 30.52 20.3199 30.53 19.7199 30.53H16.14C15.47 30.53 15.4699 30.53 15.4699 29.87V19.16C15.4699 18.53 15.47 18.53 14.84 18.53H13.0299V14.44C13.6899 14.44 14.3499 14.44 15.0299 14.44C15.4099 14.44 15.4999 14.32 15.4999 13.96C15.4999 12.85 15.5 11.75 15.55 10.64C15.5227 9.70786 15.8504 8.80017 16.4667 8.10035C17.083 7.40054 17.942 6.96078 18.87 6.86995C20.4884 6.71336 22.1141 6.64659 23.7399 6.66996C23.8299 6.66996 24.0099 6.88995 24.0099 7.00995C24.0099 8.17995 24.0099 9.33995 24.0099 10.51C24.0099 10.8 23.9 10.9 23.61 10.9C22.87 10.9 22.12 10.9 21.37 10.9C20.62 10.9 20.37 11.16 20.37 11.9C20.37 12.64 20.38 13.57 20.38 14.44V14.52Z" fill="#DADADA"/>
</svg>
