<svg width="80" height="79" viewBox="0 0 80 79" fill="none" xmlns="http://www.w3.org/2000/svg">
<path d="M78.5301 33.5198C77.2189 25.4485 73.4082 17.9921 67.6351 12.201C61.862 6.4099 54.4174 2.57628 46.3502 1.24005C37.1379 -0.274727 27.6877 1.55551 19.7074 6.40069C11.7271 11.2459 5.74313 18.7863 2.83725 27.6585C-0.0686368 36.5308 0.295208 46.1497 3.86288 54.7772C7.43056 63.4046 13.9667 70.4714 22.2901 74.7C28.6879 77.9985 35.8894 79.4164 43.0602 78.7898C51.0902 78.1722 58.7309 75.0793 64.9295 69.9373C71.1282 64.7954 75.5794 57.8576 77.67 50.0799C78.217 47.5861 78.6376 45.0659 78.93 42.5296C78.99 42.1596 79.0702 41.8 79.1402 41.43V38.2C78.9402 36.63 78.7701 35.0598 78.5301 33.5198ZM43.8402 31.2899H51.4801C51.5363 31.4205 51.5734 31.5588 51.5902 31.7C51.3702 34.15 51.12 36.6096 50.94 39.0696C50.88 39.7496 50.57 39.8999 49.94 39.8899C48.23 39.8899 46.5201 39.8899 44.8102 39.8899C44.0201 39.8899 43.8102 40.11 43.8102 40.8899C43.8102 48.59 43.8102 56.29 43.8102 63.99C43.8102 65.22 43.8101 65.22 42.5501 65.22H34.94C33.53 65.22 33.5201 65.2199 33.5201 63.8299V41.3099C33.5201 39.9599 33.52 39.9598 32.19 39.9598H28.3602V31.2899C29.7602 31.2899 31.1501 31.2399 32.5201 31.2899C33.3401 31.2899 33.5201 31.0198 33.5201 30.2899C33.5201 27.9499 33.5202 25.6098 33.6302 23.2899C33.8302 18.9298 36.33 15.8699 40.68 15.2899C44.1098 14.9628 47.5552 14.8258 51.0001 14.8797C51.1901 14.8797 51.5702 15.3499 51.5702 15.5999C51.6202 18.0699 51.5702 20.5398 51.5702 23.0198C51.5702 23.6398 51.3501 23.8599 50.7401 23.8499C49.1501 23.8499 47.5701 23.8499 45.9901 23.8499C44.4101 23.8499 43.7801 24.4197 43.7701 26.0897C43.7601 27.7597 43.8402 29.4296 43.8402 31.2796V31.2899Z" fill="#0A2337"/>
</svg>
