<svg width="38" height="37" viewBox="0 0 38 37" fill="none" xmlns="http://www.w3.org/2000/svg">
<path d="M19.3702 36.91C15.7186 36.912 12.1484 35.8303 9.11188 33.802C6.07541 31.7737 3.70906 28.8899 2.31257 25.5159C0.916078 22.1418 0.552328 18.4293 1.26716 14.8483C1.98199 11.2673 3.74331 7.97902 6.32819 5.39974C8.91308 2.82046 12.2052 1.06623 15.7877 0.359181C19.3702 -0.34787 23.082 0.0240551 26.4529 1.42787C29.8239 2.83168 32.7027 5.20425 34.7244 8.24512C36.7462 11.286 37.82 14.8584 37.8101 18.51C37.8154 20.9312 37.3416 23.3295 36.4163 25.5669C35.491 27.8043 34.1324 29.8366 32.4185 31.5468C30.7046 33.2569 28.6694 34.6112 26.43 35.5317C24.1906 36.4521 21.7913 36.9206 19.3702 36.91ZM8.88019 18.41C8.88019 19.89 8.88019 21.41 8.88019 22.83C8.86666 23.6217 9.01241 24.408 9.30915 25.142C9.60589 25.8761 10.0474 26.5429 10.6072 27.1028C11.1671 27.6627 11.8341 28.1041 12.5682 28.4009C13.3023 28.6976 14.0885 28.8435 14.8802 28.83C17.8802 28.83 20.9701 28.83 24.0201 28.83C25.5371 28.8226 26.9916 28.2242 28.0745 27.1618C29.1575 26.0994 29.7837 24.6567 29.8201 23.14C29.8801 20.04 29.8801 16.94 29.8201 13.84C29.8188 12.4134 29.2779 11.0401 28.306 9.99579C27.334 8.95149 26.003 8.31354 24.5801 8.21002C21.3901 8.02002 18.18 8.10001 14.98 8.11001C14.1748 8.08525 13.3731 8.2251 12.6238 8.52099C11.8745 8.81689 11.1934 9.26259 10.6224 9.83084C10.0513 10.3991 9.60239 11.0779 9.3028 11.8257C9.00322 12.5736 8.8594 13.3747 8.88019 14.18C8.87019 15.58 8.88019 17 8.88019 18.41Z" fill="#DADADA"/>
<path d="M10.9101 18.36C10.9101 16.87 10.8301 15.36 10.9101 13.91C11.0601 11.45 12.37 10.09 14.84 10.01C17.84 9.91002 20.9299 9.89002 23.9699 10.01C24.4811 10.0014 24.9888 10.0974 25.4616 10.2921C25.9344 10.4868 26.3623 10.7762 26.7191 11.1424C27.076 11.5086 27.3541 11.9439 27.5365 12.4216C27.719 12.8992 27.8018 13.4092 27.7799 13.92C27.8899 16.92 27.8799 19.92 27.7799 22.92C27.7934 23.4299 27.7041 23.9373 27.5172 24.412C27.3304 24.8866 27.0499 25.3188 26.6925 25.6827C26.3351 26.0467 25.9081 26.3349 25.4369 26.5303C24.9657 26.7257 24.4599 26.8242 23.9499 26.82C20.8799 26.94 17.8099 26.94 14.7499 26.82C14.2402 26.8228 13.7351 26.7234 13.2646 26.5275C12.794 26.3316 12.3675 26.0433 12.0104 25.6796C11.6533 25.316 11.3728 24.8844 11.1855 24.4104C10.9981 23.9364 10.9078 23.4296 10.9198 22.92C10.8298 21.39 10.9198 19.85 10.9198 18.32L10.9101 18.36ZM19.4298 13.18C18.4505 13.1961 17.4975 13.4994 16.6891 14.0523C15.8807 14.6052 15.2525 15.3834 14.8825 16.2903C14.5124 17.1971 14.417 18.1926 14.6078 19.1533C14.7986 20.114 15.2672 20.9974 15.9557 21.6941C16.6442 22.3907 17.522 22.8697 18.4804 23.0718C19.4387 23.2738 20.4355 23.19 21.3466 22.8306C22.2577 22.4712 23.0432 21.8522 23.6056 21.0503C24.168 20.2484 24.4824 19.2991 24.5099 18.32C24.5289 17.6449 24.411 16.973 24.1632 16.3448C23.9154 15.7165 23.543 15.145 23.0683 14.6646C22.5935 14.1843 22.0263 13.8051 21.401 13.5499C20.7757 13.2948 20.1051 13.1689 19.4298 13.18ZM24.7399 14.07C25.0134 14.0687 25.2767 13.9655 25.4782 13.7806C25.6797 13.5957 25.8051 13.3424 25.83 13.07C25.8114 12.8068 25.6952 12.56 25.5043 12.3779C25.3134 12.1957 25.0615 12.0913 24.7978 12.085C24.534 12.0788 24.2773 12.1711 24.078 12.3441C23.8787 12.517 23.7509 12.758 23.7199 13.02C23.7293 13.2904 23.839 13.5477 24.0275 13.7417C24.216 13.9358 24.4699 14.0528 24.7399 14.07Z" fill="#DADADA"/>
</svg>
