<svg width="79" height="79" viewBox="0 0 79 79" fill="none" xmlns="http://www.w3.org/2000/svg">
<path d="M39.7701 78.8903C32.0222 78.8943 24.4474 76.5982 18.0052 72.2937C11.5631 67.9891 6.54347 61.8694 3.58215 54.7097C0.620825 47.55 -0.149112 39.6724 1.37024 32.0749C2.88958 24.4774 6.62977 17.5017 12.1168 12.0315C17.6039 6.56124 24.5911 2.84289 32.1932 1.34689C39.7954 -0.149112 47.6703 0.644831 54.8209 3.62814C61.9715 6.61144 68.076 11.6498 72.3607 18.1052C76.6455 24.5606 78.918 32.1424 78.8903 39.8903C78.8903 45.022 77.8775 50.103 75.91 54.8425C73.9426 59.582 71.0591 63.8869 67.4249 67.51C63.7907 71.133 59.4771 74.0034 54.7316 75.9563C49.986 77.9091 44.9018 78.9061 39.7701 78.8903ZM17.5101 39.6501C17.5101 42.7701 17.5101 45.8905 17.5101 49.0105C17.4818 50.6896 17.7913 52.3571 18.4203 53.9143C19.0492 55.4715 19.9847 56.8865 21.1713 58.0749C22.3578 59.2634 23.7713 60.2008 25.3275 60.8322C26.8837 61.4636 28.5509 61.7759 30.2301 61.7502C36.6901 61.8235 43.1536 61.8035 49.6202 61.6902C52.8408 61.6805 55.93 60.4132 58.2296 58.1584C60.5292 55.9037 61.857 52.8401 61.93 49.6203C62.0634 43.047 62.0634 36.4703 61.93 29.8903C61.9207 26.8682 60.7717 23.9609 58.712 21.7492C56.6524 19.5376 53.834 18.1843 50.8202 17.9602C44.0402 17.5502 37.2301 17.7202 30.43 17.7302C28.7228 17.6821 27.0239 17.9822 25.4366 18.6125C23.8493 19.2429 22.4069 20.1904 21.1979 21.3967C19.9888 22.6029 19.0382 24.0428 18.4042 25.6286C17.7701 27.2145 17.466 28.913 17.5101 30.6203C17.4901 33.6303 17.5101 36.6401 17.5101 39.6501Z" fill="#0A2337"/>
<path d="M21.8101 39.5202C21.8101 36.3702 21.6601 33.2102 21.8101 30.0802C22.1201 24.8602 24.9002 21.9902 30.1402 21.8102C36.5902 21.5902 43.06 21.5502 49.5 21.8102C54.39 22.0302 57.4201 25.19 57.5901 30.09C57.8234 36.49 57.8234 42.8933 57.5901 49.2999C57.4301 54.1299 54.29 57.38 49.46 57.57C42.96 57.82 36.46 57.82 29.94 57.57C25.06 57.35 22.1201 54.1702 21.8201 49.2902C21.6201 46.0502 21.8201 42.7799 21.8201 39.5299L21.8101 39.5202ZM39.8801 28.5202C37.7749 28.5383 35.7214 29.1766 33.9768 30.3551C32.2322 31.5336 30.8738 33.2003 30.0711 35.1466C29.2684 37.093 29.0573 39.2323 29.4639 41.298C29.8705 43.3637 30.8767 45.264 32.3572 46.7609C33.8377 48.2578 35.7265 49.2851 37.7876 49.7145C39.8487 50.1439 41.9907 49.9566 43.9458 49.1754C45.9009 48.3943 47.5823 47.0544 48.7801 45.3229C49.9778 43.5914 50.6386 41.545 50.68 39.4401C50.7067 38.0088 50.4466 36.5865 49.9148 35.2575C49.383 33.9284 48.5904 32.7196 47.5838 31.7018C46.5771 30.684 45.3769 29.8781 44.0537 29.3317C42.7306 28.7853 41.3116 28.5092 39.8801 28.5202ZM51.1699 30.4303C51.761 30.4188 52.3262 30.1846 52.7525 29.775C53.1787 29.3654 53.4349 28.8105 53.47 28.2204C53.4504 27.6503 53.2142 27.109 52.8093 26.7072C52.4045 26.3054 51.8617 26.0731 51.2915 26.0578C50.7214 26.0424 50.1668 26.2452 49.741 26.6246C49.3152 27.0041 49.0502 27.5321 49 28.1002C48.9937 28.6939 49.2153 29.2675 49.6189 29.7028C50.0226 30.1381 50.5775 30.4017 51.1699 30.4401V30.4303Z" fill="#0A2337"/>
<path d="M47.1101 39.16C47.1155 40.574 46.6986 41.9572 45.9128 43.1327C45.1271 44.3082 44.0082 45.2221 42.6997 45.7577C41.3912 46.2933 39.9526 46.4262 38.5681 46.139C37.1837 45.8519 35.9165 45.1578 34.929 44.1459C33.9414 43.134 33.2785 41.8504 33.0251 40.4594C32.7718 39.0683 32.9393 37.6334 33.5066 36.3383C34.0739 35.0431 35.015 33.9467 36.2092 33.1898C37.4035 32.4329 38.7966 32.0499 40.21 32.0897C42.0613 32.1161 43.8269 32.875 45.1201 34.2001C46.4133 35.5251 47.1288 37.3086 47.1101 39.16Z" fill="#0A2337"/>
</svg>
