<svg width="420" height="434" viewBox="0 0 420 434" fill="none" xmlns="http://www.w3.org/2000/svg">
<path d="M226.11 310.06H215.04V362.2H227.04C232.033 362.2 234.527 359.63 234.52 354.49V317.77C234.553 312.63 231.75 310.06 226.11 310.06Z" fill="#DADADA"/>
<path d="M152.04 310.06H143.18C137.673 310.06 134.917 312.63 134.91 317.77V402.22C134.91 407.367 137.733 409.94 143.38 409.94H153.04C158.02 409.94 160.513 407.367 160.52 402.22V317.77C160.533 312.63 157.707 310.06 152.04 310.06Z" fill="#DADADA"/>
<path d="M94.04 108H83.9301V149.6H94.04C98.6467 149.6 100.95 146.817 100.95 141.25V116.36C100.957 110.787 98.6534 108 94.04 108Z" fill="#DADADA"/>
<path d="M157.82 108H150.59C146.09 108 143.84 110.25 143.84 114.75V188.63C143.84 193.13 146.143 195.38 150.75 195.38H158.62C162.687 195.38 164.72 193.13 164.72 188.63V114.75C164.72 110.25 162.42 108 157.82 108Z" fill="#DADADA"/>
<path d="M303.49 310.06H294.63C289.11 310.06 286.353 312.63 286.36 317.77V402.22C286.36 407.367 289.18 409.94 294.82 409.94H304.47C309.463 409.94 311.957 407.367 311.95 402.22V317.77C311.95 312.63 309.13 310.06 303.49 310.06Z" fill="#DADADA"/>
<path d="M33.98 108H24.98V153.62H34.78C38.84 153.62 40.8733 151.37 40.88 146.87V114.75C40.8866 110.25 38.5866 108 33.98 108Z" fill="#DADADA"/>
<path d="M24.1 78.7101H26.53C29.1033 78.7101 30.3866 77.2901 30.38 74.4501V27.8201C30.38 24.9801 28.9267 23.5601 26.02 23.5601H23.59C21.0233 23.5601 19.74 24.9801 19.74 27.8201V74.4501C19.74 77.2901 21.1933 78.7101 24.1 78.7101Z" fill="#DADADA"/>
<path d="M406.59 0.449951H13.04C9.75192 0.460498 6.6015 1.77136 4.27646 4.09641C1.95141 6.42145 0.640552 9.57189 0.630005 12.86V420.86C0.643201 424.145 1.95557 427.292 4.28061 429.613C6.60565 431.935 9.75456 433.242 13.04 433.25H406.59C409.885 433.25 413.046 431.944 415.379 429.618C417.713 427.291 419.029 424.135 419.04 420.84V12.84C419.024 9.54843 417.705 6.39709 415.372 4.07523C413.039 1.75336 409.882 0.449913 406.59 0.449951ZM278.76 94.03H323.76V108.03H308.95V209.35H293.53V108H278.76V94.03ZM235.07 94.03H273.3V108.03H250.49V143.03H270.73V157.03H250.49V195.42H273.3V209.42H235.04L235.07 94.03ZM131.34 15.78H141.04V74.98C141.04 78.16 142.46 79.7399 145.3 79.7399H149.3C151.94 79.7399 153.3 78.16 153.3 74.98V15.78H163.04V74.78C163.04 83.9733 159.12 88.5666 151.28 88.5599H143.04C135.26 88.5599 131.373 83.93 131.38 74.67L131.34 15.78ZM100.22 15.78H124.35V24.6H109.95V46.7H122.72V55.52H109.95V79.7399H124.35V88.52H100.22V15.78ZM62.72 71.52H72.45V75.52C72.45 78.3466 73.9 79.7633 76.8 79.77H78.53C81.1033 79.77 82.3867 78.3533 82.38 75.52V63.1199C82.4391 62.6321 82.3978 62.1374 82.2585 61.6661C82.1192 61.1949 81.8849 60.7572 81.57 60.3799C80.7392 59.7049 79.8564 59.0964 78.93 58.5599L69.71 53.39C68.1589 52.6141 66.6827 51.6969 65.3 50.65C64.3731 49.8955 63.6795 48.8932 63.3 47.7599C62.8564 46.2649 62.6539 44.7087 62.7 43.15V28.2499C62.7 19.9366 66.5833 15.78 74.35 15.78H80.43C88.1967 15.78 92.0833 19.9366 92.09 28.2499V35.34H82.36V28.96C82.36 26.0466 80.94 24.5933 78.1 24.6H76.58C73.8133 24.6 72.43 26.0533 72.43 28.96V41.02C72.3697 41.5078 72.4104 42.0028 72.5498 42.4742C72.6892 42.9456 72.9241 43.3833 73.24 43.7599C74.0688 44.433 74.948 45.0415 75.87 45.58L85.1 50.58C86.5875 51.387 88.0236 52.2854 89.4 53.27C90.2378 53.8816 90.9224 54.6792 91.4 55.6C91.9938 57.2725 92.2355 59.0496 92.11 60.8199V76.33C92.11 84.5033 88.19 88.59 80.35 88.59H74.35C66.5833 88.59 62.7 84.13 62.7 75.21L62.72 71.52ZM10.04 27.21C10.04 18.8966 13.9233 14.7433 21.69 14.7499H28.49C36.25 14.7499 40.1333 18.9033 40.14 27.21V75.0599C40.14 83.3733 36.2567 87.53 28.49 87.53H21.69C13.9233 87.5233 10.04 83.3666 10.04 75.0599V27.21ZM28.45 425.91H9.55002V294.08H28.45V425.91ZM32.45 224.91H18.04V247.01H30.82V255.83H18.04V280.05H32.44V288.87H8.32001V216.04H32.45V224.91ZM25.04 167.59V209.35H9.57001V94.03H37.68C50.1 94.03 56.31 100.617 56.31 113.79V148C56.31 161.06 50.1533 167.59 37.84 167.59H25.04ZM39.49 216.04H50.24L59.24 258.82L68.24 216.04H78.99V288.82H69.24L70.24 241.18L62.94 275.65H55.44L48.14 241.18L49.14 288.82H39.44L39.49 216.04ZM101.27 329.52H82.37V317.95C82.37 312.69 79.6133 310.06 74.1 310.06H71.15C65.76 310.06 63.08 312.69 63.08 317.95V339.8C63.08 342.253 63.6033 343.92 64.65 344.8C66.2687 346.031 67.9806 347.134 69.77 348.1L87.69 357.1C90.5623 358.547 93.3501 360.157 96.04 361.92C97.623 363.022 98.9359 364.468 99.88 366.15C100.787 367.803 101.243 370.953 101.25 375.6V403.69C101.25 418.51 93.6367 425.917 78.41 425.91H66.82C51.72 425.91 44.17 417.83 44.17 401.67V395.06H63.04V402.22C63.04 407.367 65.86 409.94 71.5 409.94H74.85C79.8367 409.94 82.33 407.367 82.33 402.22V379.83C82.33 377.383 81.8067 375.717 80.76 374.83C79.1379 373.601 77.4265 372.495 75.64 371.52L57.72 362.16C54.7246 360.743 51.8573 359.07 49.15 357.16C47.3879 355.828 46.0533 354.01 45.31 351.93C44.4434 349.234 44.0444 346.41 44.13 343.58V316.58C44.13 301.52 51.68 293.99 66.78 293.99H78.59C93.69 293.99 101.237 301.52 101.23 316.58L101.27 329.52ZM93.27 162.77H83.95V209.35H68.51V94.03H98.71C110.49 94.03 116.38 100.617 116.38 113.79V142.22C116.38 152.28 113.327 158.65 107.22 161.33L117.99 209.33H103.37L93.27 162.77ZM179.44 403.52C179.44 418.46 171.827 425.927 156.6 425.92H138.88C123.653 425.913 116.04 418.447 116.04 403.52V316.67C116.04 301.61 123.587 294.08 138.68 294.08H156.8C171.887 294.08 179.433 301.61 179.44 316.67V403.52ZM180.14 189.77C180.14 202.83 173.93 209.36 161.51 209.36H147.04C134.613 209.36 128.4 202.83 128.4 189.77V113.77C128.4 100.603 134.557 94.0166 146.87 94.0099H161.65C173.963 94.0099 180.12 100.597 180.12 113.77L180.14 189.77ZM188.14 195.39H198.26C202.86 195.39 205.163 192.607 205.17 187.04V94.04H220.59V189.92C220.59 202.88 214.647 209.357 202.76 209.35H188.17L188.14 195.39ZM253.45 355.78C253.45 370.72 245.9 378.187 230.8 378.18H215.04V425.92H196.14V294.08H230.59C245.823 294.08 253.44 301.61 253.44 316.67L253.45 355.78ZM330.86 403.52C330.86 418.46 323.243 425.927 308.01 425.92H290.29C275.07 425.92 267.457 418.453 267.45 403.52V316.67C267.45 301.61 275 294.08 290.1 294.08H308.21C323.31 294.08 330.86 301.61 330.86 316.67V403.52ZM331.76 189.77V113.77C331.76 100.603 337.917 94.0166 350.23 94.0099H365.04C377.347 94.0099 383.503 100.597 383.51 113.77V189.77C383.51 202.83 377.3 209.36 364.88 209.36H350.39C337.97 209.353 331.76 202.82 331.76 189.76V189.77ZM390.32 425.92L377.91 372.67H366.49V425.92H347.59V294.08H384.59C399.03 294.08 406.25 301.61 406.25 316.67V349.16C406.25 360.667 402.507 367.95 395.02 371.01L408.22 425.91L390.32 425.92Z" fill="#DADADA"/>
<path d="M361.96 195.38C366.033 195.38 368.067 193.13 368.06 188.63V114.75C368.06 110.25 365.757 108 361.15 108H353.93C349.43 108 347.18 110.25 347.18 114.75V188.63C347.18 193.13 349.483 195.38 354.09 195.38H361.96Z" fill="#DADADA"/>
<path d="M378.9 310.06H366.49V357.61H378.9C384.54 357.61 387.36 354.427 387.36 348.06V319.6C387.36 313.24 384.54 310.06 378.9 310.06Z" fill="#DADADA"/>
</svg>
