<svg width="155" height="110" viewBox="0 0 155 110" fill="none" xmlns="http://www.w3.org/2000/svg">
<path d="M92.62 47.9499C92.62 59.4165 89.4967 69.2899 83.25 77.5699C76.87 86.0632 68.16 91.4932 57.12 93.8598C59.4732 98.5064 62.7541 102.621 66.76 105.95C67.15 106.25 67.34 106.53 67.34 106.79C67.34 108.517 62.0367 109.38 51.4301 109.38C43.6301 109.38 38.8234 109.077 37.01 108.47C36.5086 108.282 36.0688 107.96 35.7388 107.538C35.4089 107.116 35.2017 106.612 35.14 106.08C34.62 103.58 34.4467 99.4199 34.62 93.5999C24.4969 91.2609 15.5629 85.3357 9.47003 76.9199C3.43003 68.6932 0.410034 59.0265 0.410034 47.9199C0.410034 34.5199 4.72337 23.2465 13.35 14.0999C22.1434 4.76652 33.2001 0.0998535 46.5201 0.0998535C59.84 0.0998535 70.8767 4.79985 79.63 14.1999C88.29 23.3799 92.62 34.6299 92.62 47.9499ZM68.12 47.8199C68.12 41.1532 66.2 35.6132 62.36 31.1999C60.4131 28.9206 57.9788 27.1082 55.237 25.8965C52.4952 24.6849 49.5161 24.105 46.5201 24.1999C39.7867 24.1999 34.4534 26.5065 30.5201 31.1199C26.7734 35.4665 24.8967 41.0699 24.89 47.9299C24.89 54.9099 26.7234 60.5132 30.39 64.7399C34.2234 69.2332 39.5901 71.4765 46.4901 71.4698C53.1567 71.4698 58.4901 69.1632 62.4901 64.5499C66.2434 60.1632 68.12 54.5865 68.12 47.8199Z" fill="#EDEDED"/>
<path d="M53.84 77.88C53.84 79.72 53.8766 82.47 53.95 86.13C54.03 89.79 54.07 92.52 54.07 94.34C54.07 94.88 53.75 95.19 53.12 95.34C49.2427 95.6466 45.3472 95.6466 41.47 95.34C40.91 95.24 40.57 95.08 40.47 94.85C40.3983 94.4745 40.3748 94.0914 40.4 93.71C40.4 91.97 40.4 89.34 40.51 85.84C40.62 82.34 40.63 79.7 40.63 77.93C40.7072 72.2014 40.4266 66.4736 39.79 60.78C39.7531 60.5147 39.7297 60.2477 39.72 59.98C39.72 59.47 40.06 59.22 40.72 59.22C41.38 59.22 42.51 59.3 43.96 59.45C45.41 59.6 46.51 59.68 47.25 59.68C47.99 59.68 49.08 59.61 50.55 59.49C52.02 59.37 53.11 59.3 53.85 59.3C54.59 59.3 54.76 59.55 54.76 60.06C54.76 60.16 54.76 60.4 54.68 60.78C54.0883 66.4604 53.8079 72.1689 53.84 77.88ZM54.84 49.69C54.84 54.09 52.3633 56.29 47.41 56.29C45.5096 56.3624 43.6431 55.7721 42.13 54.62C41.4122 54.0193 40.8364 53.2672 40.4437 52.4176C40.0511 51.568 39.8514 50.642 39.8591 49.7061C39.8667 48.7702 40.0815 47.8476 40.4879 47.0045C40.8944 46.1614 41.4825 45.4188 42.21 44.83C43.6828 43.6519 45.5245 43.0321 47.41 43.08C49.2758 43.0449 51.0924 43.68 52.53 44.87C53.2577 45.4423 53.843 46.1752 54.2403 47.0114C54.6376 47.8476 54.836 48.7643 54.82 49.69H54.84Z" fill="url(#paint0_linear)"/>
<path d="M83.36 64.6C83.2826 64.986 83.0827 65.3367 82.79 65.6C82.0936 65.425 81.3781 65.3376 80.66 65.34C79.3388 65.2967 78.0342 65.6446 76.91 66.34C76.3422 66.6627 75.8729 67.1337 75.5523 67.7027C75.2317 68.2717 75.0719 68.9172 75.09 69.57C75.09 70.45 75.73 71.57 77.0201 72.94C78.3204 74.2323 79.5268 75.6158 80.63 77.08C81.8862 78.8962 82.5594 81.0518 82.56 83.26C82.5421 84.66 82.2851 86.0466 81.8 87.36C81.3901 88.6983 80.6307 89.903 79.6 90.85C77.6286 92.5342 75.4178 93.916 73.04 94.95C70.6902 96.0318 68.1459 96.6271 65.56 96.7C65.06 96.7 63.92 95.32 62.17 92.58C60.42 89.84 59.53 88.16 59.53 87.58C59.53 87.35 59.67 87.22 59.95 87.16L65.3 86.16C67.52 85.45 68.64 84.29 68.64 82.67C68.4691 81.1919 67.7821 79.8214 66.7 78.8C64.4 76.24 63.2 74.8867 63.1 74.74C61.8597 73.0701 61.1806 71.0501 61.16 68.97C61.16 65.1833 63.0834 61.9567 66.9301 59.29C70.1488 57.0161 73.9891 55.7872 77.9301 55.77C78.3301 55.77 79.3301 57.13 80.9301 59.85C82.5301 62.57 83.34 64.1534 83.36 64.6Z" fill="url(#paint1_linear)"/>
<path d="M125.32 76.6301C125.32 82.3901 123.557 87.0567 120.03 90.6301C116.503 94.2034 111.867 96.0001 106.12 96.0201C103.592 96.1076 101.071 95.6823 98.7118 94.7697C96.3521 93.8571 94.2016 92.4761 92.39 90.7101C90.6114 88.9264 89.2187 86.7959 88.2983 84.4511C87.378 82.1064 86.9496 79.5974 87.04 77.0801C87.04 71.2067 88.76 66.4434 92.2 62.7901C95.64 59.1367 100.307 57.3101 106.2 57.3101C111.92 57.3101 116.55 59.1001 120.09 62.6801C123.63 66.2601 125.373 70.9101 125.32 76.6301ZM112.88 76.6301C112.905 74.6992 112.246 72.8218 111.02 71.3301C110.452 70.5977 109.72 70.0089 108.883 69.6112C108.045 69.2134 107.127 69.0178 106.2 69.0401C105.252 69.0209 104.313 69.2234 103.457 69.6314C102.601 70.0394 101.852 70.6416 101.27 71.3901C100.092 72.8882 99.451 74.739 99.451 76.6451C99.451 78.5511 100.092 80.4019 101.27 81.9001C101.86 82.6344 102.608 83.227 103.458 83.6341C104.307 84.0413 105.238 84.2527 106.18 84.2527C107.122 84.2527 108.053 84.0413 108.902 83.6341C109.752 83.227 110.5 82.6344 111.09 81.9001C112.289 80.4091 112.923 78.5427 112.88 76.6301Z" fill="url(#paint2_linear)"/>
<path d="M154.04 56.44C154.04 62.74 151.497 67.3566 146.41 70.29C142.59 72.4633 140.517 74.6633 140.19 76.89C140.11 77.47 140.05 78.05 140 78.64C139.95 79.23 139.37 79.43 138.63 79.43C136.785 79.362 134.938 79.5164 133.13 79.89C132.959 79.9505 132.781 79.9875 132.6 80C131.69 80 131.24 78.76 131.24 76.28C131.24 74.1266 132.483 71.46 134.97 68.28C137.457 65.1 138.703 62.4333 138.71 60.28C138.71 57.02 136.98 55.38 133.51 55.38C131.31 55.38 128.45 56.25 124.94 57.97C123.847 57.97 123.303 54.7433 123.31 48.29C123.293 47.7576 123.33 47.2249 123.42 46.7C123.77 45 125.89 43.7 129.76 42.75C132.417 42.0947 135.143 41.759 137.88 41.75C142.013 41.5999 146.059 42.9616 149.26 45.58C150.832 46.9061 152.08 48.574 152.908 50.4562C153.737 52.3384 154.124 54.3852 154.04 56.44ZM143.76 89.07C143.778 90.935 143.059 92.7318 141.76 94.07C141.12 94.7401 140.351 95.2735 139.5 95.6379C138.648 96.0023 137.731 96.1902 136.805 96.1902C135.879 96.1902 134.962 96.0023 134.11 95.6379C133.259 95.2735 132.49 94.7401 131.85 94.07C130.551 92.7318 129.832 90.935 129.85 89.07C129.83 88.1449 129.997 87.2253 130.34 86.3662C130.684 85.507 131.198 84.7261 131.85 84.07C132.5 83.4184 133.273 82.9014 134.123 82.5487C134.973 82.196 135.884 82.0145 136.805 82.0145C137.726 82.0145 138.637 82.196 139.487 82.5487C140.337 82.9014 141.11 83.4184 141.76 84.07C142.418 84.7236 142.937 85.5034 143.286 86.3626C143.634 87.2219 143.806 88.1428 143.79 89.07H143.76Z" fill="url(#paint3_linear)"/>
<defs>
<linearGradient id="paint0_linear" x1="39.69" y1="69.3" x2="54.82" y2="69.3" gradientUnits="userSpaceOnUse">
<stop stop-color="#F6921E"/>
<stop offset="1" stop-color="#FAAF40"/>
</linearGradient>
<linearGradient id="paint1_linear" x1="8411.71" y1="5201.08" x2="8979.58" y2="5201.08" gradientUnits="userSpaceOnUse">
<stop stop-color="#F6921E"/>
<stop offset="1" stop-color="#FAAF40"/>
</linearGradient>
<linearGradient id="paint2_linear" x1="14560.3" y1="4942.38" x2="16027.6" y2="4942.38" gradientUnits="userSpaceOnUse">
<stop stop-color="#F6921E"/>
<stop offset="1" stop-color="#FAAF40"/>
</linearGradient>
<linearGradient id="paint3_linear" x1="12861.1" y1="6493.15" x2="13805.9" y2="6493.15" gradientUnits="userSpaceOnUse">
<stop stop-color="#F6921E"/>
<stop offset="1" stop-color="#FAAF40"/>
</linearGradient>
</defs>
</svg>
