<svg width="843" height="605" viewBox="0 0 843 605" fill="none" xmlns="http://www.w3.org/2000/svg">
<g filter="url(#filter0_d)">
<path d="M360.79 571.18C337.963 551.58 320.787 530.024 309.26 506.51C315.34 505.177 321.287 503.693 327.1 502.06C314.24 481.73 313.1 476.42 313.1 472.77C313.1 467.2 316.96 462.77 322.7 461.69C331.967 459.97 341.3 458.244 350.7 456.51C361.76 452.86 361.76 448.31 361.76 446.59C361.76 444.53 360.76 439.88 353.69 431.88C335.69 411.88 334.31 410.16 333.69 409.28C325.77 398.06 321.76 385.97 321.76 373.28C321.757 370.405 321.937 367.532 322.3 364.68C315.898 369.673 308.909 373.863 301.49 377.16C300.89 390.95 300.59 405.58 300.59 420.97C300.59 430.73 300.8 445.51 301.2 464.97C301.6 484.43 301.81 499.3 301.81 509.09C301.81 516.32 296.88 521.79 289.23 523.09C285.91 523.67 278.88 524.44 256.69 524.44C234.15 524.44 227.17 523.66 223.87 523.08C221.69 522.68 215.16 521.5 212.08 515.93L211.93 515.64C210.86 513.53 210.55 511.26 210.55 505.49C210.55 496.13 210.76 481.9 211.17 463.19C211.58 444.48 211.77 430.4 211.77 421.07C211.77 406.55 211.553 393.136 211.12 380.83C193.688 375.258 178.172 364.901 166.34 350.94C146.74 328.347 136.943 298.376 136.95 261.03C136.95 224.363 146.977 194.393 167.03 171.12C188.01 146.453 216.483 134.12 252.45 134.12C287.257 134.12 315.497 146.57 337.17 171.47C357.69 195.21 367.95 224.834 367.95 260.34C367.95 279.367 365.177 296.644 359.63 312.17C378.63 299.96 399.12 293.77 420.63 293.77C426.83 293.77 431.36 297.77 444.43 320.03C457.5 342.29 458.43 346.6 458.43 350.03C458.43 354.91 455.43 358.9 453.13 361.47L449.51 365.57L444.21 364.24C441.208 363.486 438.125 363.1 435.03 363.09C428.85 363.09 423.75 364.38 419.84 366.92L419.7 367C415.84 369.41 414.2 372.29 414.2 376.62C414.2 376.76 414.29 380.23 422.09 388.49C436.47 403.62 440.56 409.08 442.35 411.85C444.311 414.779 446.062 417.843 447.59 421.02C448.01 420.48 448.43 419.94 448.84 419.39C453.007 413.87 456.917 408.203 460.57 402.39C463.09 375.17 472.94 352.27 489.96 334.19L490.02 334.12C496.135 310.221 499.159 285.638 499.02 260.97C499.02 189.73 475.85 129.557 429.51 80.4502C382.243 30.2035 323.223 5.07649 252.45 5.06982C181.21 5.06982 122.073 30.0698 75.04 80.0698C28.9334 128.95 5.88 189.237 5.88 260.93C5.88 320.184 22.0201 371.823 54.3 415.85C87.4934 461.283 132.333 491.026 188.82 505.08C187.893 536.186 188.817 558.433 191.59 571.82C192.97 578.487 196.303 582.75 201.59 584.61C211.277 587.843 236.983 589.456 278.71 589.45C335.423 589.45 363.78 584.84 363.78 575.62C363.86 574.273 362.863 572.794 360.79 571.18Z" fill="#EDEDED"/>
<path d="M291.69 420.409C291.69 430.282 291.893 444.992 292.3 464.539C292.707 484.085 292.91 498.732 292.91 508.479C292.91 511.319 291.22 513.009 287.84 513.549C283.24 514.356 272.907 514.762 256.84 514.769C240.6 514.769 230.183 514.363 225.59 513.549C222.59 513.009 220.79 512.129 220.11 510.909C219.84 510.369 219.7 508.349 219.7 504.829C219.7 495.495 219.903 481.459 220.31 462.719C220.717 443.979 220.92 429.875 220.92 420.409C220.92 381.989 219.433 351.416 216.46 328.689C216.19 326.519 216.05 325.099 216.05 324.429C216.05 321.723 217.877 320.369 221.53 320.369C225.31 320.369 231.093 320.772 238.88 321.579C246.667 322.385 252.517 322.796 256.43 322.809C260.363 322.809 266.25 322.476 274.09 321.809C281.93 321.142 287.813 320.809 291.74 320.809C294.993 320.809 296.617 322.166 296.61 324.879C296.61 325.409 296.47 326.699 296.21 328.729C293.197 355.082 291.69 385.642 291.69 420.409ZM296.97 269.639C296.97 293.179 283.713 304.949 257.2 304.949C245.827 304.949 236.423 301.972 228.99 296.019C220.87 289.519 216.81 280.726 216.81 269.639C216.81 259.086 221.003 250.419 229.39 243.639C237.11 237.419 246.38 234.309 257.2 234.309C267.177 234.109 276.896 237.494 284.59 243.849C292.843 250.623 296.97 259.219 296.97 269.639Z" fill="#EDEDED"/>
<path d="M449.57 349.39C449.57 350.723 448.57 352.549 446.57 354.869C442.856 353.93 439.041 353.454 435.21 353.449C427.21 353.449 420.513 355.206 415.12 358.72C408.62 362.78 405.373 368.53 405.38 375.97C405.38 380.71 408.83 386.729 415.73 394.029C426.15 404.989 432.577 412.363 435.01 416.149C441.727 425.871 445.333 437.404 445.35 449.22C445.26 456.703 443.908 464.117 441.35 471.149C438.23 479.663 434.307 485.883 429.58 489.81C419.02 498.806 407.189 506.192 394.47 511.729C379.99 517.949 366.657 521.06 354.47 521.06C351.763 521.06 345.707 513.726 336.3 499.06C326.893 484.393 322.193 475.433 322.2 472.18C322.2 470.95 322.94 470.179 324.43 469.939L353.04 464.659C364.947 460.879 370.9 454.656 370.9 445.989C370.9 440.036 367.45 433.14 360.55 425.3C348.243 411.64 341.82 404.403 341.28 403.59C334.38 393.85 330.93 383.566 330.93 372.739C330.93 352.446 341.21 335.2 361.77 321C380.17 308.42 399.837 302.13 420.77 302.13C422.93 302.13 428.263 309.399 436.77 323.939C445.277 338.479 449.543 346.963 449.57 349.39Z" fill="#EDEDED"/>
<path d="M674.04 413.72C674.04 444.56 664.603 469.582 645.73 488.789C626.857 507.996 602.067 517.603 571.36 517.609C541.6 517.609 517.113 508.139 497.9 489.199C478.687 470.259 469.067 445.909 469.04 416.149C469.04 384.763 478.237 359.297 496.63 339.75C515.023 320.203 539.917 310.427 571.31 310.42C601.877 310.42 626.633 319.993 645.58 339.14C664.527 358.286 674.013 383.146 674.04 413.72ZM607.48 413.72C607.612 403.403 604.091 393.371 597.54 385.399C594.506 381.478 590.593 378.325 586.117 376.193C581.641 374.062 576.726 373.013 571.77 373.13C561.103 373.13 552.31 377.323 545.39 385.71C538.897 393.557 535.65 402.89 535.65 413.71C535.65 424.657 538.897 434.056 545.39 441.909C552.29 450.303 561.083 454.496 571.77 454.489C582.317 454.489 591.04 450.296 597.94 441.909C604.273 434.069 607.44 424.673 607.44 413.72H607.48Z" fill="#EDEDED"/>
<path d="M827.74 305.76C827.74 339.44 814.143 364.126 786.95 379.819C766.523 391.459 755.43 403.23 753.67 415.13C753.27 418.24 752.93 421.36 752.67 424.47C751.723 427.31 749.287 428.729 745.36 428.729C731.7 428.729 721.893 429.543 715.94 431.17C715.028 431.508 714.071 431.71 713.1 431.77C708.227 431.77 705.79 425.143 705.79 411.89C705.79 400.39 712.457 386.15 725.79 369.17C739.123 352.19 745.79 337.953 745.79 326.46C745.79 309.007 736.523 300.279 717.99 300.279C706.223 300.279 690.937 304.879 672.13 314.079C666.31 314.079 663.4 296.829 663.4 262.329C663.33 259.476 663.534 256.623 664.01 253.81C665.897 244.75 677.194 237.717 697.9 232.71C712.106 229.154 726.686 227.314 741.33 227.229C765.81 227.229 786.1 234.06 802.2 247.72C819.233 262.2 827.747 281.546 827.74 305.76ZM772.74 480.27C772.808 485.265 771.883 490.224 770.019 494.859C768.155 499.494 765.388 503.712 761.88 507.27C758.466 510.865 754.356 513.729 749.801 515.686C745.245 517.642 740.338 518.651 735.38 518.651C730.422 518.651 725.515 517.642 720.96 515.686C716.404 513.729 712.294 510.865 708.88 507.27C705.372 503.712 702.606 499.494 700.741 494.859C698.877 490.224 697.952 485.265 698.02 480.27C697.937 475.32 698.857 470.404 700.723 465.819C702.59 461.234 705.364 457.075 708.88 453.59C712.344 450.08 716.469 447.293 721.019 445.391C725.568 443.489 730.449 442.51 735.38 442.51C740.311 442.51 745.193 443.489 749.742 445.391C754.291 447.293 758.417 450.08 761.88 453.59C765.398 457.074 768.174 461.233 770.043 465.818C771.911 470.403 772.832 475.319 772.75 480.27H772.74Z" fill="#EDEDED"/>
</g>
<defs>
<filter id="filter0_d" x="0" y="0" width="843" height="605" filterUnits="userSpaceOnUse" color-interpolation-filters="sRGB">
<feFlood flood-opacity="0" result="BackgroundImageFix"/>
<feColorMatrix in="SourceAlpha" type="matrix" values="0 0 0 0 0 0 0 0 0 0 0 0 0 0 0 0 0 0 127 0"/>
<feOffset dx="5" dy="5"/>
<feGaussianBlur stdDeviation="5"/>
<feColorMatrix type="matrix" values="0 0 0 0 0 0 0 0 0 0 0 0 0 0 0 0 0 0 0.25 0"/>
<feBlend mode="normal" in2="BackgroundImageFix" result="effect1_dropShadow"/>
<feBlend mode="normal" in="SourceGraphic" in2="effect1_dropShadow" result="shape"/>
</filter>
</defs>
</svg>
