<svg width="823" height="585" viewBox="0 0 823 585" fill="none" xmlns="http://www.w3.org/2000/svg">
<path d="M355.79 566.18C332.963 546.58 315.787 525.024 304.26 501.51C310.34 500.177 316.287 498.693 322.1 497.06C309.24 476.73 308.1 471.42 308.1 467.77C308.1 462.2 311.96 457.77 317.7 456.69C326.967 454.97 336.3 453.244 345.7 451.51C356.76 447.86 356.76 443.31 356.76 441.59C356.76 439.53 355.76 434.88 348.69 426.88C330.69 406.88 329.31 405.16 328.69 404.28C320.77 393.06 316.76 380.97 316.76 368.28C316.757 365.405 316.937 362.532 317.3 359.68C310.898 364.673 303.909 368.863 296.49 372.16C295.89 385.95 295.59 400.58 295.59 415.97C295.59 425.73 295.8 440.51 296.2 459.97C296.6 479.43 296.81 494.3 296.81 504.09C296.81 511.32 291.88 516.79 284.23 518.09C280.91 518.67 273.88 519.44 251.69 519.44C229.15 519.44 222.17 518.66 218.87 518.08C216.69 517.68 210.16 516.5 207.08 510.93L206.93 510.64C205.86 508.53 205.55 506.26 205.55 500.49C205.55 491.13 205.76 476.9 206.17 458.19C206.58 439.48 206.77 425.4 206.77 416.07C206.77 401.55 206.553 388.136 206.12 375.83C188.688 370.258 173.172 359.901 161.34 345.94C141.74 323.347 131.943 293.376 131.95 256.03C131.95 219.363 141.977 189.393 162.03 166.12C183.01 141.453 211.483 129.12 247.45 129.12C282.257 129.12 310.497 141.57 332.17 166.47C352.69 190.21 362.95 219.834 362.95 255.34C362.95 274.367 360.177 291.644 354.63 307.17C373.63 294.96 394.12 288.77 415.63 288.77C421.83 288.77 426.36 292.77 439.43 315.03C452.5 337.29 453.43 341.6 453.43 345.03C453.43 349.91 450.43 353.9 448.13 356.47L444.51 360.57L439.21 359.24C436.208 358.486 433.125 358.1 430.03 358.09C423.85 358.09 418.75 359.38 414.84 361.92L414.7 362C410.84 364.41 409.2 367.29 409.2 371.62C409.2 371.76 409.29 375.23 417.09 383.49C431.47 398.62 435.56 404.08 437.35 406.85C439.311 409.779 441.062 412.843 442.59 416.02C443.01 415.48 443.43 414.94 443.84 414.39C448.007 408.87 451.917 403.203 455.57 397.39C458.09 370.17 467.94 347.27 484.96 329.19L485.02 329.12C491.135 305.221 494.159 280.638 494.02 255.97C494.02 184.73 470.85 124.557 424.51 75.4502C377.243 25.2035 318.223 0.0764909 247.45 0.0698242C176.21 0.0698242 117.073 25.0698 70.04 75.0698C23.9334 123.95 0.880005 184.237 0.880005 255.93C0.880005 315.184 17.0201 366.823 49.3 410.85C82.4934 456.283 127.333 486.026 183.82 500.08C182.893 531.186 183.817 553.433 186.59 566.82C187.97 573.487 191.303 577.75 196.59 579.61C206.277 582.843 231.983 584.456 273.71 584.45C330.423 584.45 358.78 579.84 358.78 570.62C358.86 569.273 357.863 567.794 355.79 566.18Z" fill="#EDEDED"/>
<path d="M286.69 415.409C286.69 425.282 286.893 439.992 287.3 459.539C287.707 479.085 287.91 493.732 287.91 503.479C287.91 506.319 286.22 508.009 282.84 508.549C278.24 509.356 267.907 509.762 251.84 509.769C235.6 509.769 225.183 509.363 220.59 508.549C217.59 508.009 215.79 507.129 215.11 505.909C214.84 505.369 214.7 503.349 214.7 499.829C214.7 490.495 214.903 476.459 215.31 457.719C215.717 438.979 215.92 424.875 215.92 415.409C215.92 376.989 214.433 346.416 211.46 323.689C211.19 321.519 211.05 320.099 211.05 319.429C211.05 316.723 212.877 315.369 216.53 315.369C220.31 315.369 226.093 315.772 233.88 316.579C241.667 317.385 247.517 317.796 251.43 317.809C255.363 317.809 261.25 317.476 269.09 316.809C276.93 316.142 282.813 315.809 286.74 315.809C289.993 315.809 291.617 317.166 291.61 319.879C291.61 320.409 291.47 321.699 291.21 323.729C288.197 350.082 286.69 380.642 286.69 415.409ZM291.97 264.639C291.97 288.179 278.713 299.949 252.2 299.949C240.827 299.949 231.423 296.972 223.99 291.019C215.87 284.519 211.81 275.726 211.81 264.639C211.81 254.086 216.003 245.419 224.39 238.639C232.11 232.419 241.38 229.309 252.2 229.309C262.177 229.109 271.896 232.494 279.59 238.849C287.843 245.623 291.97 254.219 291.97 264.639Z" fill="#EDEDED"/>
<path d="M444.57 344.39C444.57 345.723 443.57 347.549 441.57 349.869C437.856 348.93 434.041 348.454 430.21 348.449C422.21 348.449 415.513 350.206 410.12 353.72C403.62 357.78 400.373 363.53 400.38 370.97C400.38 375.71 403.83 381.729 410.73 389.029C421.15 399.989 427.577 407.363 430.01 411.149C436.727 420.871 440.333 432.404 440.35 444.22C440.26 451.703 438.908 459.117 436.35 466.149C433.23 474.663 429.307 480.883 424.58 484.81C414.02 493.806 402.189 501.192 389.47 506.729C374.99 512.949 361.657 516.06 349.47 516.06C346.763 516.06 340.707 508.726 331.3 494.06C321.893 479.393 317.193 470.433 317.2 467.18C317.2 465.95 317.94 465.179 319.43 464.939L348.04 459.659C359.947 455.879 365.9 449.656 365.9 440.989C365.9 435.036 362.45 428.14 355.55 420.3C343.243 406.64 336.82 399.403 336.28 398.59C329.38 388.85 325.93 378.566 325.93 367.739C325.93 347.446 336.21 330.2 356.77 316C375.17 303.42 394.837 297.13 415.77 297.13C417.93 297.13 423.263 304.399 431.77 318.939C440.277 333.479 444.543 341.963 444.57 344.39Z" fill="#EDEDED"/>
<path d="M669.04 408.72C669.04 439.56 659.603 464.582 640.73 483.789C621.857 502.996 597.067 512.603 566.36 512.609C536.6 512.609 512.113 503.139 492.9 484.199C473.687 465.259 464.067 440.909 464.04 411.149C464.04 379.763 473.237 354.297 491.63 334.75C510.023 315.203 534.917 305.427 566.31 305.42C596.877 305.42 621.633 314.993 640.58 334.14C659.527 353.286 669.013 378.146 669.04 408.72ZM602.48 408.72C602.612 398.403 599.091 388.371 592.54 380.399C589.506 376.478 585.593 373.325 581.117 371.193C576.641 369.062 571.726 368.013 566.77 368.13C556.103 368.13 547.31 372.323 540.39 380.71C533.897 388.557 530.65 397.89 530.65 408.71C530.65 419.657 533.897 429.056 540.39 436.909C547.29 445.303 556.083 449.496 566.77 449.489C577.317 449.489 586.04 445.296 592.94 436.909C599.273 429.069 602.44 419.673 602.44 408.72H602.48Z" fill="#EDEDED"/>
<path d="M822.74 300.76C822.74 334.44 809.143 359.126 781.95 374.819C761.523 386.459 750.43 398.23 748.67 410.13C748.27 413.24 747.93 416.36 747.67 419.47C746.723 422.31 744.287 423.729 740.36 423.729C726.7 423.729 716.893 424.543 710.94 426.17C710.028 426.508 709.071 426.71 708.1 426.77C703.227 426.77 700.79 420.143 700.79 406.89C700.79 395.39 707.457 381.15 720.79 364.17C734.123 347.19 740.79 332.953 740.79 321.46C740.79 304.007 731.523 295.279 712.99 295.279C701.223 295.279 685.937 299.879 667.13 309.079C661.31 309.079 658.4 291.829 658.4 257.329C658.33 254.476 658.534 251.623 659.01 248.81C660.897 239.75 672.194 232.717 692.9 227.71C707.106 224.154 721.686 222.314 736.33 222.229C760.81 222.229 781.1 229.06 797.2 242.72C814.233 257.2 822.747 276.546 822.74 300.76ZM767.74 475.27C767.808 480.265 766.883 485.224 765.019 489.859C763.155 494.494 760.388 498.712 756.88 502.27C753.466 505.865 749.356 508.729 744.801 510.686C740.245 512.642 735.338 513.651 730.38 513.651C725.422 513.651 720.515 512.642 715.96 510.686C711.404 508.729 707.294 505.865 703.88 502.27C700.372 498.712 697.606 494.494 695.741 489.859C693.877 485.224 692.952 480.265 693.02 475.27C692.937 470.32 693.857 465.404 695.723 460.819C697.59 456.234 700.364 452.075 703.88 448.59C707.344 445.08 711.469 442.293 716.019 440.391C720.568 438.489 725.449 437.51 730.38 437.51C735.311 437.51 740.193 438.489 744.742 440.391C749.291 442.293 753.417 445.08 756.88 448.59C760.398 452.074 763.174 456.233 765.043 460.818C766.911 465.403 767.832 470.319 767.75 475.27H767.74Z" fill="#EDEDED"/>
</svg>
