<svg width="401" height="402" viewBox="0 0 401 402" fill="none" xmlns="http://www.w3.org/2000/svg">
<path d="M200.32 401.06C310.926 401.06 400.59 311.396 400.59 200.79C400.59 90.184 310.926 0.52002 200.32 0.52002C89.7139 0.52002 0.0500488 90.184 0.0500488 200.79C0.0500488 311.396 89.7139 401.06 200.32 401.06Z" fill="#0A2337"/>
<path d="M236.04 172.24C258.827 172.24 281.62 172.24 304.42 172.24C308.99 172.24 312.42 174.1 314.42 178.24C314.923 179.223 315.201 180.305 315.234 181.409C315.267 182.512 315.054 183.609 314.61 184.62C301.783 216.933 289.007 249.267 276.28 281.62C275.906 282.614 275.644 283.647 275.5 284.7C275.208 286.915 274.202 288.975 272.634 290.567C271.065 292.159 269.021 293.195 266.81 293.52C265.596 293.668 264.373 293.732 263.15 293.71C218.323 293.71 173.497 293.71 128.67 293.71C124.52 293.71 120.94 292.71 118.55 289.05C117.703 287.917 117.172 286.58 117.01 285.174C116.849 283.769 117.062 282.346 117.63 281.05C125.803 260.63 133.897 240.17 141.91 219.67C146.67 207.51 151.65 195.41 155.84 183.04C158.33 175.69 160.53 171.97 170.84 172.1C192.56 172.39 214.28 172.19 236.01 172.19L236.04 172.24ZM214.04 280.66C229.41 280.66 244.79 280.66 260.17 280.66C261.23 280.66 263.1 280.32 263.23 279.8C263.843 277.654 264.05 275.412 263.84 273.19C263.57 271.28 261.53 271.37 259.84 271.38H217.39C201.023 271.38 184.653 271.397 168.28 271.43C167.15 271.43 165.17 271.82 165.03 272.43C164.453 274.583 164.29 276.826 164.55 279.04C164.81 280.88 166.78 280.73 168.34 280.73L214.04 280.66Z" fill="#F9B233"/>
<path d="M211.04 164.52H168.43C157.8 164.52 151.5 169.98 149.01 180.28C147.78 185.36 145.34 190.14 143.41 195.04C132.25 223.327 121.08 251.613 109.9 279.9C108.34 283.85 109.35 287.56 110.98 291.21C111.29 291.9 111.69 292.55 112.06 293.21C101.57 295.54 95.6 288.69 95.61 281.47C95.6633 240.803 95.6633 200.117 95.61 159.41C95.61 151.66 100.48 146.86 108.25 146.85H138.08C141.56 146.85 141.37 147.24 141.34 143.71C141.34 143.02 141.34 142.33 141.34 141.64C141.327 141.065 141.433 140.493 141.65 139.96C141.867 139.427 142.192 138.944 142.604 138.542C143.015 138.139 143.505 137.826 144.043 137.621C144.581 137.416 145.155 137.324 145.73 137.35C146.73 137.35 147.73 137.35 149.04 137.35C149.04 133.78 148.94 130.35 149.04 126.96C149.033 124.752 149.319 122.553 149.89 120.42C150.746 117.772 152.429 115.469 154.692 113.848C156.955 112.228 159.678 111.377 162.46 111.42C178.14 111.34 193.81 111.3 209.46 111.42C217.38 111.48 222.89 117.14 223.25 125.05C223.462 128.557 222.909 132.068 221.63 135.34C218.34 143.57 215.32 151.9 212.22 160.21C211.84 161.59 211.5 163 211.04 164.52ZM215.82 137.26C215.82 132.89 216.01 128.69 215.76 124.52C215.675 122.964 214.979 121.505 213.823 120.461C212.668 119.416 211.146 118.869 209.59 118.94C193.99 118.94 178.387 118.94 162.78 118.94C161.305 118.876 159.862 119.38 158.746 120.347C157.63 121.314 156.927 122.671 156.78 124.14C156.48 128.45 156.7 132.8 156.7 137.23C159.23 137.6 162.39 136.56 163.56 139.45C164.45 141.67 164.38 144.28 164.74 146.69H207.74C208.13 144.09 208.03 141.51 208.95 139.37C210.13 136.66 213.15 137.57 215.82 137.29V137.26Z" fill="#F9B233"/>
<path d="M308.51 164.25H300.13C302.72 157.31 305.2 150.64 307.77 143.74L244.44 119.91C242.38 125.34 240.38 130.61 238.39 135.91C235.06 144.78 231.7 153.64 228.44 162.53C228.317 163.119 227.969 163.636 227.47 163.972C226.972 164.308 226.362 164.437 225.77 164.33C223.77 164.21 221.71 164.33 219.34 164.33C221.34 158.89 223.24 153.82 225.14 148.77C229.06 138.33 232.993 127.893 236.94 117.46C238.87 112.36 242.37 110.77 247.48 112.7L309.93 136.18C315.55 138.3 317.04 141.49 314.93 147.11C312.82 152.73 310.67 158.52 308.51 164.25Z" fill="#F9B233"/>
</svg>
