<svg width="67" height="66" viewBox="0 0 67 66" fill="none" xmlns="http://www.w3.org/2000/svg">
<path d="M34.04 15.5202C30.8526 15.4706 27.7133 16.3024 24.9685 17.9235C22.2236 19.5446 19.9797 21.8919 18.4842 24.7072C16.9886 27.5224 16.2996 30.6961 16.4929 33.8781C16.6863 37.06 17.7546 40.1269 19.58 42.7404C19.6336 42.8278 19.6676 42.9256 19.6797 43.0275C19.6918 43.1293 19.6816 43.2327 19.65 43.3302C19.47 43.9802 19.23 44.6101 19.02 45.2501L17.61 49.4303L18.04 49.2999C19.94 48.6999 21.85 48.1101 23.74 47.4801C23.9144 47.4104 24.1034 47.385 24.2901 47.4059C24.4767 47.4268 24.6554 47.4936 24.81 47.6002C26.9063 48.9075 29.2662 49.7339 31.72 50.0202C33.9507 50.3278 36.2204 50.1892 38.3971 49.6124C40.5739 49.0356 42.6143 48.0322 44.4 46.6603C46.4803 45.1701 48.1924 43.2239 49.4057 40.9708C50.6189 38.7177 51.301 36.2173 51.4 33.6603C51.681 29.3374 50.2434 25.0784 47.4 21.8102C45.7822 19.8328 43.7431 18.2417 41.4317 17.1535C39.1202 16.0652 36.5948 15.5073 34.04 15.5202ZM40.79 42.38C39.7982 42.6312 38.7541 42.5829 37.79 42.2404C35.4529 41.6348 33.2419 40.6191 31.26 39.2404C29.4283 37.8391 27.8142 36.1739 26.47 34.2999C25.4926 33.1011 24.7189 31.7498 24.18 30.2999C23.7888 29.245 23.7129 28.0994 23.9614 27.0021C24.21 25.9048 24.7724 24.9036 25.58 24.1203C25.8246 23.844 26.1409 23.6405 26.4939 23.5329C26.8469 23.4252 27.2228 23.4177 27.58 23.5104C28.58 23.2704 28.96 23.8303 29.28 24.6603C29.69 25.7503 30.14 26.8303 30.64 27.8903C30.7736 28.1461 30.8279 28.436 30.7958 28.7228C30.7637 29.0096 30.6468 29.2802 30.46 29.5001C30.1481 29.94 29.8144 30.3639 29.46 30.7702C29.3232 30.8946 29.2359 31.0641 29.2138 31.2477C29.1918 31.4313 29.2366 31.6168 29.34 31.7702C30.6437 34.0434 32.5738 35.8937 34.9 37.1002C35.34 37.3202 35.79 37.5303 36.24 37.7204C36.69 37.9104 37.06 37.9301 37.47 37.4401L38.88 35.7101C39.28 35.2001 39.51 35.1003 40.08 35.3703C41.47 36.0003 42.84 36.67 44.22 37.32C44.3524 37.3817 44.4622 37.4836 44.534 37.611C44.6057 37.7383 44.6358 37.8846 44.62 38.0299C44.52 40.2899 43.36 41.6002 40.83 42.3302L40.79 42.38Z" fill="#0A2337"/>
<path d="M33.41 0.520021C26.9567 0.522007 20.649 2.43813 15.2849 6.02588C9.92076 9.61363 5.74138 14.7117 3.27546 20.6753C0.809536 26.6389 0.167901 33.2 1.43174 39.5283C2.69557 45.8567 5.80807 51.6681 10.3755 56.2271C14.9429 60.786 20.7599 63.8879 27.0906 65.1401C33.4212 66.3923 39.9811 65.7386 45.9402 63.2617C51.8992 60.7848 56.9897 56.5958 60.5675 51.2251C64.1454 45.8544 66.0499 39.5432 66.04 33.0898C66.0268 24.4454 62.5828 16.1596 56.4646 10.0527C50.3465 3.94582 42.0544 0.517361 33.41 0.520021ZM51.26 44.2402C48.3981 48.4926 44.07 51.5416 39.1025 52.8052C34.1349 54.0687 28.8759 53.4579 24.33 51.0898C24.2015 51.0179 24.0587 50.9752 23.9117 50.9648C23.7648 50.9545 23.6174 50.9766 23.48 51.0298L14.75 53.8101C14.02 54.0401 13.3 54.2998 12.58 54.5498L12.42 54.4702C12.47 54.3402 12.53 54.2198 12.57 54.0898C13.71 50.7498 14.83 47.4198 15.97 44.0898C16.0478 43.9044 16.0794 43.7028 16.062 43.5024C16.0446 43.3021 15.9787 43.1092 15.87 42.9399C13.3899 38.6479 12.5816 33.5916 13.6 28.7402C14.5415 24.2203 16.9634 20.1433 20.4826 17.1548C24.0019 14.1663 28.4173 12.4369 33.03 12.2402C37.4009 12.0131 41.7286 13.2016 45.37 15.6299C48.1306 17.3775 50.4238 19.7718 52.0512 22.605C53.6786 25.4381 54.5912 28.625 54.71 31.8901C54.98 36.2619 53.7642 40.5963 51.26 44.1899V44.2402Z" fill="#0A2337"/>
</svg>
